# xmcd CD database file
#
# Track frame offsets:
#	150
#	20009
#	39268
#	60256
#	74356
#	91208
#	114016
#	135264
#	152662
#	171149
#
# Disc length: 2649 seconds
#
# Revision: 0
# Processed by: cddbd v1.5.1PL0 Copyright (c) Steve Scherf et al.
# Submitted via: CDex 1.51
#
DISCID=6d0a570a
DTITLE=Danny House and Penny Watson - Housebroken
DYEAR=2000
DGENRE=Jazz
TTITLE0=Avalon
TTITLE1=I'm Old Fashioned
TTITLE2=I Don't EAt Meat
TTITLE3=Theme For Hakeem
TTITLE4=He Never Noticed
TTITLE5=My Foolish Heart
TTITLE6=Housebroken
TTITLE7=A Sleepin' Bee
TTITLE8=Just Friends
TTITLE9=Look For The Silver Lining
EXTD=YEAR: 2000
EXTT0=
EXTT1=
EXTT2=
EXTT3=
EXTT4=
EXTT5=
EXTT6=
EXTT7=
EXTT8=
EXTT9=
PLAYORDER=
